<mxfile host="app.diagrams.net" modified="2024-04-26T07:34:50.959Z" agent="Mozilla/5.0 (Windows NT 10.0; Win64; x64) AppleWebKit/537.36 (KHTML, like Gecko) Chrome/124.0.0.0 Safari/537.36" etag="NNwGI4T-e-4rOhyDvPXQ" version="24.3.0" type="github">
  <diagram id="C5RBs43oDa-KdzZeNtuy" name="Page-1">
    <mxGraphModel dx="2736" dy="1048" grid="1" gridSize="10" guides="1" tooltips="1" connect="1" arrows="1" fold="1" page="1" pageScale="1" pageWidth="827" pageHeight="1169" background="none" math="0" shadow="0">
      <root>
        <mxCell id="WIyWlLk6GJQsqaUBKTNV-0" />
        <mxCell id="WIyWlLk6GJQsqaUBKTNV-1" parent="WIyWlLk6GJQsqaUBKTNV-0" />
        <mxCell id="lh2tGht62M5ew2MT8YxI-20" value="" style="swimlane;startSize=0;" vertex="1" parent="WIyWlLk6GJQsqaUBKTNV-1">
          <mxGeometry x="-350" y="90" width="325" height="680" as="geometry">
            <mxRectangle x="585" y="110" width="50" height="40" as="alternateBounds" />
          </mxGeometry>
        </mxCell>
        <mxCell id="WIyWlLk6GJQsqaUBKTNV-7" value="填寫折價卷發送起訖時間" style="shape=parallelogram;perimeter=parallelogramPerimeter;whiteSpace=wrap;html=1;fixedSize=1;" parent="lh2tGht62M5ew2MT8YxI-20" vertex="1">
          <mxGeometry x="106.25" y="40" width="117.5" height="40" as="geometry" />
        </mxCell>
        <mxCell id="lh2tGht62M5ew2MT8YxI-5" value="選擇訂單商品類型" style="shape=parallelogram;perimeter=parallelogramPerimeter;whiteSpace=wrap;html=1;fixedSize=1;" vertex="1" parent="lh2tGht62M5ew2MT8YxI-20">
          <mxGeometry x="101.25" y="110" width="120" height="40" as="geometry" />
        </mxCell>
        <mxCell id="lh2tGht62M5ew2MT8YxI-2" style="edgeStyle=orthogonalEdgeStyle;rounded=0;orthogonalLoop=1;jettySize=auto;html=1;exitX=0.5;exitY=1;exitDx=0;exitDy=0;entryX=0.5;entryY=0;entryDx=0;entryDy=0;" edge="1" parent="lh2tGht62M5ew2MT8YxI-20" source="WIyWlLk6GJQsqaUBKTNV-7" target="lh2tGht62M5ew2MT8YxI-5">
          <mxGeometry relative="1" as="geometry">
            <mxPoint x="171.25" y="140" as="targetPoint" />
            <Array as="points">
              <mxPoint x="161.25" y="80" />
            </Array>
          </mxGeometry>
        </mxCell>
        <mxCell id="lh2tGht62M5ew2MT8YxI-7" value="填寫訂單購買起訖時間" style="shape=parallelogram;perimeter=parallelogramPerimeter;whiteSpace=wrap;html=1;fixedSize=1;" vertex="1" parent="lh2tGht62M5ew2MT8YxI-20">
          <mxGeometry x="101.25" y="200" width="120" height="40" as="geometry" />
        </mxCell>
        <mxCell id="lh2tGht62M5ew2MT8YxI-8" style="edgeStyle=orthogonalEdgeStyle;rounded=0;orthogonalLoop=1;jettySize=auto;html=1;" edge="1" parent="lh2tGht62M5ew2MT8YxI-20" source="lh2tGht62M5ew2MT8YxI-5" target="lh2tGht62M5ew2MT8YxI-7">
          <mxGeometry relative="1" as="geometry" />
        </mxCell>
        <mxCell id="lh2tGht62M5ew2MT8YxI-9" value="選擇訂單是否過鑑賞期" style="shape=parallelogram;perimeter=parallelogramPerimeter;whiteSpace=wrap;html=1;fixedSize=1;" vertex="1" parent="lh2tGht62M5ew2MT8YxI-20">
          <mxGeometry x="101.25" y="280" width="120" height="40" as="geometry" />
        </mxCell>
        <mxCell id="lh2tGht62M5ew2MT8YxI-10" style="edgeStyle=orthogonalEdgeStyle;rounded=0;orthogonalLoop=1;jettySize=auto;html=1;exitX=0.5;exitY=1;exitDx=0;exitDy=0;entryX=0.5;entryY=0;entryDx=0;entryDy=0;" edge="1" parent="lh2tGht62M5ew2MT8YxI-20" source="lh2tGht62M5ew2MT8YxI-7" target="lh2tGht62M5ew2MT8YxI-9">
          <mxGeometry relative="1" as="geometry" />
        </mxCell>
        <mxCell id="lh2tGht62M5ew2MT8YxI-12" value="訂單最低(滿額)門檻&amp;nbsp;" style="shape=parallelogram;perimeter=parallelogramPerimeter;whiteSpace=wrap;html=1;fixedSize=1;" vertex="1" parent="lh2tGht62M5ew2MT8YxI-20">
          <mxGeometry x="101.25" y="370" width="120" height="40" as="geometry" />
        </mxCell>
        <mxCell id="lh2tGht62M5ew2MT8YxI-13" style="edgeStyle=orthogonalEdgeStyle;rounded=0;orthogonalLoop=1;jettySize=auto;html=1;" edge="1" parent="lh2tGht62M5ew2MT8YxI-20" source="lh2tGht62M5ew2MT8YxI-9" target="lh2tGht62M5ew2MT8YxI-12">
          <mxGeometry relative="1" as="geometry" />
        </mxCell>
        <mxCell id="lh2tGht62M5ew2MT8YxI-14" value="訂單回饋方式" style="rhombus;whiteSpace=wrap;html=1;" vertex="1" parent="lh2tGht62M5ew2MT8YxI-20">
          <mxGeometry x="106.25" y="460" width="110" height="80" as="geometry" />
        </mxCell>
        <mxCell id="lh2tGht62M5ew2MT8YxI-15" style="edgeStyle=orthogonalEdgeStyle;rounded=0;orthogonalLoop=1;jettySize=auto;html=1;entryX=0.5;entryY=0;entryDx=0;entryDy=0;" edge="1" parent="lh2tGht62M5ew2MT8YxI-20" source="lh2tGht62M5ew2MT8YxI-12" target="lh2tGht62M5ew2MT8YxI-14">
          <mxGeometry relative="1" as="geometry" />
        </mxCell>
        <mxCell id="lh2tGht62M5ew2MT8YxI-45" value="Next Step" style="rounded=0;whiteSpace=wrap;html=1;" vertex="1" parent="lh2tGht62M5ew2MT8YxI-20">
          <mxGeometry x="20" y="600" width="70" height="30" as="geometry" />
        </mxCell>
        <mxCell id="lh2tGht62M5ew2MT8YxI-17" style="edgeStyle=orthogonalEdgeStyle;rounded=0;orthogonalLoop=1;jettySize=auto;html=1;entryX=0.5;entryY=0;entryDx=0;entryDy=0;" edge="1" parent="lh2tGht62M5ew2MT8YxI-20" source="lh2tGht62M5ew2MT8YxI-14" target="lh2tGht62M5ew2MT8YxI-45">
          <mxGeometry relative="1" as="geometry" />
        </mxCell>
        <mxCell id="lh2tGht62M5ew2MT8YxI-19" value="CouponDistributeThresholdTypeEnum = 1&lt;div&gt;訂單達{X}元，可獲得{N}元折價卷{Y}元&lt;/div&gt;" style="edgeLabel;html=1;align=center;verticalAlign=middle;resizable=0;points=[];" vertex="1" connectable="0" parent="lh2tGht62M5ew2MT8YxI-17">
          <mxGeometry x="-0.3095" y="-1" relative="1" as="geometry">
            <mxPoint x="-57" y="41" as="offset" />
          </mxGeometry>
        </mxCell>
        <mxCell id="lh2tGht62M5ew2MT8YxI-22" value="&lt;b&gt;&lt;font style=&quot;font-size: 20px;&quot;&gt;STEP1&lt;/font&gt;&lt;/b&gt;" style="text;html=1;align=center;verticalAlign=middle;resizable=0;points=[];autosize=1;strokeColor=none;fillColor=none;" vertex="1" parent="lh2tGht62M5ew2MT8YxI-20">
          <mxGeometry x="-10" y="-30" width="90" height="40" as="geometry" />
        </mxCell>
        <mxCell id="WIyWlLk6GJQsqaUBKTNV-2" value="" style="rounded=0;html=1;jettySize=auto;orthogonalLoop=1;fontSize=11;endArrow=block;endFill=0;endSize=8;strokeWidth=1;shadow=0;labelBackgroundColor=none;edgeStyle=orthogonalEdgeStyle;" parent="WIyWlLk6GJQsqaUBKTNV-1" source="WIyWlLk6GJQsqaUBKTNV-3" target="WIyWlLk6GJQsqaUBKTNV-6" edge="1">
          <mxGeometry relative="1" as="geometry" />
        </mxCell>
        <mxCell id="WIyWlLk6GJQsqaUBKTNV-3" value="新增活動" style="rounded=1;whiteSpace=wrap;html=1;fontSize=12;glass=0;strokeWidth=1;shadow=0;" parent="WIyWlLk6GJQsqaUBKTNV-1" vertex="1">
          <mxGeometry x="354" y="30" width="120" height="40" as="geometry" />
        </mxCell>
        <mxCell id="WIyWlLk6GJQsqaUBKTNV-5" value="訂單滿額贈卷&lt;div&gt;CouponEventTypeEnum = 1&lt;/div&gt;" style="edgeStyle=orthogonalEdgeStyle;rounded=0;html=1;jettySize=auto;orthogonalLoop=1;fontSize=11;endArrow=block;endFill=0;endSize=8;strokeWidth=1;shadow=0;labelBackgroundColor=none;exitX=0;exitY=0.5;exitDx=0;exitDy=0;" parent="WIyWlLk6GJQsqaUBKTNV-1" source="WIyWlLk6GJQsqaUBKTNV-6" target="WIyWlLk6GJQsqaUBKTNV-7" edge="1">
          <mxGeometry x="-0.0222" y="20" relative="1" as="geometry">
            <mxPoint as="offset" />
          </mxGeometry>
        </mxCell>
        <mxCell id="WIyWlLk6GJQsqaUBKTNV-6" value="&lt;font style=&quot;font-size: 11px;&quot;&gt;選擇贈卷活動類型&lt;/font&gt;" style="rhombus;whiteSpace=wrap;html=1;shadow=0;fontFamily=Helvetica;fontSize=12;align=center;strokeWidth=1;spacing=6;spacingTop=-4;" parent="WIyWlLk6GJQsqaUBKTNV-1" vertex="1">
          <mxGeometry x="364" y="110" width="100" height="80" as="geometry" />
        </mxCell>
        <mxCell id="lh2tGht62M5ew2MT8YxI-25" value="" style="swimlane;startSize=0;" vertex="1" parent="WIyWlLk6GJQsqaUBKTNV-1">
          <mxGeometry x="-810" y="840" width="190" height="670" as="geometry" />
        </mxCell>
        <mxCell id="lh2tGht62M5ew2MT8YxI-29" style="edgeStyle=orthogonalEdgeStyle;rounded=0;orthogonalLoop=1;jettySize=auto;html=1;" edge="1" parent="lh2tGht62M5ew2MT8YxI-25" source="lh2tGht62M5ew2MT8YxI-16" target="lh2tGht62M5ew2MT8YxI-28">
          <mxGeometry relative="1" as="geometry" />
        </mxCell>
        <mxCell id="lh2tGht62M5ew2MT8YxI-16" value="折價劵面額(元)" style="shape=parallelogram;perimeter=parallelogramPerimeter;whiteSpace=wrap;html=1;fixedSize=1;" vertex="1" parent="lh2tGht62M5ew2MT8YxI-25">
          <mxGeometry x="40" y="30" width="120" height="40" as="geometry" />
        </mxCell>
        <mxCell id="lh2tGht62M5ew2MT8YxI-26" value="STEP2" style="text;html=1;align=center;verticalAlign=middle;resizable=0;points=[];autosize=1;strokeColor=none;fillColor=none;fontStyle=1;fontSize=14;" vertex="1" parent="lh2tGht62M5ew2MT8YxI-25">
          <mxGeometry y="-20" width="70" height="30" as="geometry" />
        </mxCell>
        <mxCell id="lh2tGht62M5ew2MT8YxI-27" style="edgeStyle=orthogonalEdgeStyle;rounded=0;orthogonalLoop=1;jettySize=auto;html=1;exitX=0.5;exitY=1;exitDx=0;exitDy=0;" edge="1" parent="lh2tGht62M5ew2MT8YxI-25" source="lh2tGht62M5ew2MT8YxI-16" target="lh2tGht62M5ew2MT8YxI-16">
          <mxGeometry relative="1" as="geometry" />
        </mxCell>
        <mxCell id="lh2tGht62M5ew2MT8YxI-36" style="edgeStyle=orthogonalEdgeStyle;rounded=0;orthogonalLoop=1;jettySize=auto;html=1;entryX=0.5;entryY=0;entryDx=0;entryDy=0;" edge="1" parent="lh2tGht62M5ew2MT8YxI-25" source="lh2tGht62M5ew2MT8YxI-28" target="lh2tGht62M5ew2MT8YxI-30">
          <mxGeometry relative="1" as="geometry" />
        </mxCell>
        <mxCell id="lh2tGht62M5ew2MT8YxI-28" value="張數" style="shape=parallelogram;perimeter=parallelogramPerimeter;whiteSpace=wrap;html=1;fixedSize=1;" vertex="1" parent="lh2tGht62M5ew2MT8YxI-25">
          <mxGeometry x="40" y="110" width="120" height="40" as="geometry" />
        </mxCell>
        <mxCell id="lh2tGht62M5ew2MT8YxI-37" style="edgeStyle=orthogonalEdgeStyle;rounded=0;orthogonalLoop=1;jettySize=auto;html=1;" edge="1" parent="lh2tGht62M5ew2MT8YxI-25" source="lh2tGht62M5ew2MT8YxI-30" target="lh2tGht62M5ew2MT8YxI-31">
          <mxGeometry relative="1" as="geometry" />
        </mxCell>
        <mxCell id="lh2tGht62M5ew2MT8YxI-30" value="折價劵使用門檻(元)" style="shape=parallelogram;perimeter=parallelogramPerimeter;whiteSpace=wrap;html=1;fixedSize=1;" vertex="1" parent="lh2tGht62M5ew2MT8YxI-25">
          <mxGeometry x="40" y="190" width="120" height="40" as="geometry" />
        </mxCell>
        <mxCell id="lh2tGht62M5ew2MT8YxI-38" style="edgeStyle=orthogonalEdgeStyle;rounded=0;orthogonalLoop=1;jettySize=auto;html=1;" edge="1" parent="lh2tGht62M5ew2MT8YxI-25" source="lh2tGht62M5ew2MT8YxI-31" target="lh2tGht62M5ew2MT8YxI-32">
          <mxGeometry relative="1" as="geometry" />
        </mxCell>
        <mxCell id="lh2tGht62M5ew2MT8YxI-31" value="折價劵使用效期(天)" style="shape=parallelogram;perimeter=parallelogramPerimeter;whiteSpace=wrap;html=1;fixedSize=1;" vertex="1" parent="lh2tGht62M5ew2MT8YxI-25">
          <mxGeometry x="40" y="270" width="120" height="40" as="geometry" />
        </mxCell>
        <mxCell id="lh2tGht62M5ew2MT8YxI-41" style="edgeStyle=orthogonalEdgeStyle;rounded=0;orthogonalLoop=1;jettySize=auto;html=1;entryX=0.5;entryY=0;entryDx=0;entryDy=0;" edge="1" parent="lh2tGht62M5ew2MT8YxI-25" source="lh2tGht62M5ew2MT8YxI-32" target="lh2tGht62M5ew2MT8YxI-39">
          <mxGeometry relative="1" as="geometry" />
        </mxCell>
        <mxCell id="lh2tGht62M5ew2MT8YxI-32" value="&lt;div&gt;追蹤碼 (自動填入)&lt;/div&gt;" style="rounded=0;whiteSpace=wrap;html=1;" vertex="1" parent="lh2tGht62M5ew2MT8YxI-25">
          <mxGeometry x="40" y="350" width="120" height="40" as="geometry" />
        </mxCell>
        <mxCell id="lh2tGht62M5ew2MT8YxI-43" style="edgeStyle=orthogonalEdgeStyle;rounded=0;orthogonalLoop=1;jettySize=auto;html=1;" edge="1" parent="lh2tGht62M5ew2MT8YxI-25" source="lh2tGht62M5ew2MT8YxI-39" target="lh2tGht62M5ew2MT8YxI-42">
          <mxGeometry relative="1" as="geometry" />
        </mxCell>
        <mxCell id="lh2tGht62M5ew2MT8YxI-39" value="&lt;div&gt;前台備註&lt;/div&gt;" style="shape=parallelogram;perimeter=parallelogramPerimeter;whiteSpace=wrap;html=1;fixedSize=1;" vertex="1" parent="lh2tGht62M5ew2MT8YxI-25">
          <mxGeometry x="40" y="430" width="120" height="40" as="geometry" />
        </mxCell>
        <mxCell id="lh2tGht62M5ew2MT8YxI-48" style="edgeStyle=orthogonalEdgeStyle;rounded=0;orthogonalLoop=1;jettySize=auto;html=1;entryX=0.5;entryY=0;entryDx=0;entryDy=0;" edge="1" parent="lh2tGht62M5ew2MT8YxI-25" source="lh2tGht62M5ew2MT8YxI-42" target="lh2tGht62M5ew2MT8YxI-47">
          <mxGeometry relative="1" as="geometry" />
        </mxCell>
        <mxCell id="lh2tGht62M5ew2MT8YxI-42" value="&lt;div&gt;賣場行為模式&lt;/div&gt;" style="shape=parallelogram;perimeter=parallelogramPerimeter;whiteSpace=wrap;html=1;fixedSize=1;" vertex="1" parent="lh2tGht62M5ew2MT8YxI-25">
          <mxGeometry x="40" y="510" width="120" height="40" as="geometry" />
        </mxCell>
        <mxCell id="lh2tGht62M5ew2MT8YxI-47" value="建立" style="rounded=0;whiteSpace=wrap;html=1;" vertex="1" parent="lh2tGht62M5ew2MT8YxI-25">
          <mxGeometry x="40" y="600" width="120" height="40" as="geometry" />
        </mxCell>
        <mxCell id="lh2tGht62M5ew2MT8YxI-46" style="edgeStyle=orthogonalEdgeStyle;rounded=0;orthogonalLoop=1;jettySize=auto;html=1;entryX=0.5;entryY=0;entryDx=0;entryDy=0;" edge="1" parent="WIyWlLk6GJQsqaUBKTNV-1" source="lh2tGht62M5ew2MT8YxI-45" target="lh2tGht62M5ew2MT8YxI-16">
          <mxGeometry relative="1" as="geometry" />
        </mxCell>
        <mxCell id="lh2tGht62M5ew2MT8YxI-51" value="結束" style="rounded=1;whiteSpace=wrap;html=1;" vertex="1" parent="WIyWlLk6GJQsqaUBKTNV-1">
          <mxGeometry x="354" y="1590" width="120" height="60" as="geometry" />
        </mxCell>
        <mxCell id="lh2tGht62M5ew2MT8YxI-52" style="edgeStyle=orthogonalEdgeStyle;rounded=0;orthogonalLoop=1;jettySize=auto;html=1;entryX=0.5;entryY=0;entryDx=0;entryDy=0;" edge="1" parent="WIyWlLk6GJQsqaUBKTNV-1" source="lh2tGht62M5ew2MT8YxI-47" target="lh2tGht62M5ew2MT8YxI-51">
          <mxGeometry relative="1" as="geometry" />
        </mxCell>
      </root>
    </mxGraphModel>
  </diagram>
</mxfile>
